<svg width="176" height="16" viewBox="0 0 176 16" fill="none" xmlns="http://www.w3.org/2000/svg">
<path d="M58.9367 13.3256V15.8482H50.5819V13.3256H58.9367ZM51.6384 0.151855V15.8482H48.4042V0.151855H51.6384ZM57.8479 6.54466V9.0026H50.5819V6.54466H57.8479ZM58.9259 0.151855V2.68526H50.5819V0.151855H58.9259Z" fill="black"/>
<path d="M37.6022 0.151855V15.8482H34.3681V0.151855H37.6022ZM47.0028 0.151855L40.7824 7.903L37.1926 11.7624L36.6104 8.70075L39.036 5.38037L43.0356 0.151855H47.0028ZM43.3266 15.8482L38.7018 8.59295L41.0951 6.58778L47.1537 15.8482H43.3266Z" fill="black"/>
<path d="M25.9162 2.83619L21.6471 15.8482H18.2082L24.0404 0.151855H26.2288L25.9162 2.83619ZM29.463 15.8482L25.1831 2.83619L24.8382 0.151855H27.0481L32.9127 15.8482H29.463ZM29.2689 10.0052V12.5386H20.9788V10.0052H29.2689Z" fill="black"/>
<path d="M1.47692 0.151855H4.21516L8.24704 11.6762L12.2789 0.151855H15.0172L9.34665 15.8482H7.14744L1.47692 0.151855ZM0 0.151855H2.72745L3.22335 11.3851V15.8482H0V0.151855ZM13.7666 0.151855H16.5049V15.8482H13.2707V11.3851L13.7666 0.151855Z" fill="black"/>
<path fill-rule="evenodd" clip-rule="evenodd" d="M69.1215 10.483C69.1955 10.8586 69.2908 11.2181 69.4073 11.5615C69.7338 12.5027 70.1917 13.3048 70.7808 13.9679C71.3699 14.6239 72.0655 15.1266 72.8676 15.4759C73.6767 15.8253 74.5675 16 75.54 16C76.5195 16 77.4103 15.8253 78.2123 15.4759C79.0215 15.1266 79.7171 14.6239 80.2991 13.9679C80.8812 13.3048 81.3319 12.5027 81.6513 11.5615C81.7678 11.2181 81.8631 10.8586 81.9371 10.483L78.6976 10.483C78.6921 10.5075 78.6865 10.5319 78.6808 10.5561C78.5317 11.1836 78.3153 11.7148 78.0313 12.1497C77.7474 12.5775 77.3961 12.902 76.9773 13.123C76.5585 13.344 76.0794 13.4545 75.54 13.4545C75.0005 13.4545 74.5214 13.344 74.1026 13.123C73.6838 12.902 73.3289 12.5775 73.0379 12.1497C72.7469 11.7148 72.5269 11.1836 72.3778 10.5561C72.3721 10.5319 72.3665 10.5075 72.3611 10.483L69.1215 10.483ZM78.897 7.17264C78.8747 6.52606 78.8027 5.94624 78.6808 5.43315C78.5317 4.8057 78.3117 4.27807 78.0207 3.85027C77.7297 3.42246 77.3748 3.1016 76.956 2.8877C76.5372 2.66667 76.0581 2.55615 75.5187 2.55615C74.9792 2.55615 74.5001 2.66667 74.0813 2.8877C73.6696 3.1016 73.3183 3.42246 73.0273 3.85027C72.7434 4.27808 72.5269 4.8057 72.3778 5.43315C72.2559 5.94624 72.1839 6.52606 72.1617 7.17264L68.9365 7.17264C68.973 6.16806 69.13 5.26024 69.4073 4.4492C69.7267 3.50802 70.1775 2.70588 70.7595 2.04278C71.3486 1.37968 72.0442 0.873441 72.8463 0.524064C73.6555 0.174688 74.5462 -2.45209e-07 75.5187 -2.87715e-07C76.4982 -3.30531e-07 77.389 0.174688 78.191 0.524064C79.0002 0.87344 79.6958 1.37968 80.2778 2.04278C80.867 2.70588 81.3212 3.50802 81.6407 4.4492C81.9242 5.26024 82.0846 6.16806 82.1219 7.17264L78.897 7.17264ZM84.4301 10.483L84.4302 15.7861L87.6242 15.7861L87.6242 10.483L84.4301 10.483ZM90.3962 10.483L93.0968 15.7861L96.5144 15.7861L96.5144 15.6364L93.8084 10.483L90.3962 10.483ZM95.4583 7.17264C95.4772 7.1351 95.4957 7.09717 95.5136 7.05882C95.7975 6.45989 95.9395 5.74332 95.9395 4.90909C95.9395 3.88948 95.7088 3.0303 95.2474 2.33155C94.7861 1.6328 94.126 1.10517 93.2671 0.748663C92.4154 0.392157 91.3968 0.213903 90.2114 0.213903L84.4302 0.213904L84.4302 7.17264L87.6242 7.17264L87.6242 2.72727L90.2114 2.72727C90.7793 2.72727 91.2513 2.82353 91.6275 3.01604C92.0037 3.20856 92.284 3.48663 92.4686 3.85027C92.6531 4.2139 92.7454 4.64528 92.7454 5.14438C92.7454 5.61497 92.6496 6.02852 92.4579 6.38503C92.2873 6.71459 92.0379 6.97712 91.7096 7.17264L95.4583 7.17264Z" fill="black"/>
<path d="M165.732 0V15.6963H162.498V0H165.732ZM175.132 0L168.912 7.75114L165.322 11.6105L164.74 8.5489L167.166 5.22852L171.165 0H175.132ZM171.456 15.6963L166.831 8.44109L169.225 6.43593L175.283 15.6963H171.456Z" fill="black"/>
<path d="M154.046 2.68433L149.777 15.6963H146.338L152.17 0H154.359L154.046 2.68433ZM157.593 15.6963L153.313 2.68433L152.968 0H155.178L161.042 15.6963H157.593ZM157.399 9.85333V12.3867H149.108V9.85333H157.399Z" fill="black"/>
<path d="M145.777 13.1737V15.6963H137.422V13.1737H145.777ZM138.479 0V15.6963H135.245V0H138.479ZM144.688 6.39281V8.85075H137.422V6.39281H144.688ZM145.766 0V2.53341H137.422V0H145.766Z" fill="black"/>
<path d="M121.101 0H126.955C128.155 0 129.186 0.179674 130.049 0.539022C130.918 0.898371 131.587 1.43021 132.054 2.13453C132.521 2.83885 132.754 3.70488 132.754 4.73262C132.754 5.57349 132.611 6.29578 132.323 6.89949C132.043 7.49601 131.644 7.9955 131.127 8.39797C130.616 8.79325 130.016 9.10948 129.326 9.34665L128.302 9.88567H123.214L123.192 7.36305H126.976C127.544 7.36305 128.015 7.26243 128.388 7.06119C128.762 6.85996 129.042 6.57967 129.229 6.22032C129.423 5.86097 129.52 5.44413 129.52 4.96979C129.52 4.4667 129.427 4.03189 129.24 3.66535C129.053 3.29882 128.769 3.01853 128.388 2.82448C128.008 2.63043 127.53 2.53341 126.955 2.53341H124.335V15.6963H121.101V0ZM129.876 15.6963L126.297 8.69982L129.714 8.67826L133.337 15.5454V15.6963H129.876Z" fill="black"/>
<path d="M113.145 8.80763H109.113L109.091 6.58685H112.476C113.073 6.58685 113.562 6.51139 113.943 6.36047C114.324 6.20235 114.607 5.97596 114.794 5.6813C114.988 5.37944 115.085 5.01291 115.085 4.58169C115.085 4.09298 114.992 3.69769 114.805 3.39584C114.625 3.09399 114.341 2.87479 113.953 2.73823C113.572 2.60168 113.08 2.53341 112.476 2.53341H110.234V15.6963H107V0H112.476C113.389 0 114.205 0.0862436 114.924 0.258731C115.65 0.431218 116.264 0.693542 116.767 1.0457C117.27 1.39786 117.655 1.84346 117.921 2.38248C118.187 2.91431 118.319 3.54677 118.319 4.27984C118.319 4.92667 118.172 5.52318 117.877 6.06939C117.59 6.6156 117.134 7.06119 116.508 7.40617C115.89 7.75114 115.082 7.9416 114.083 7.97753L113.145 8.80763ZM113.005 15.6963H108.229L109.49 13.1737H113.005C113.572 13.1737 114.036 13.0839 114.395 12.9042C114.755 12.7173 115.021 12.4658 115.193 12.1496C115.366 11.8333 115.452 11.4704 115.452 11.0607C115.452 10.6008 115.373 10.2019 115.215 9.86411C115.064 9.52632 114.819 9.26759 114.482 9.08792C114.144 8.90106 113.698 8.80763 113.145 8.80763H110.029L110.051 6.58685H113.932L114.676 7.46007C115.632 7.4457 116.401 7.61459 116.983 7.96675C117.572 8.31173 118 8.76091 118.266 9.31431C118.539 9.8677 118.675 10.4606 118.675 11.0931C118.675 12.0993 118.456 12.9473 118.018 13.6373C117.579 14.32 116.936 14.8339 116.088 15.1789C115.247 15.5238 114.219 15.6963 113.005 15.6963Z" fill="black"/>
</svg>
